<svg width="40" height="38" viewBox="0 0 40 38" fill="none" xmlns="http://www.w3.org/2000/svg">
<path d="M28.0005 0C28.7091 0.00016197 29.3649 0.375583 29.7241 0.986328L39.7241 17.9863C40.092 18.612 40.092 19.388 39.7241 20.0137L29.7241 37.0137C29.3649 37.6244 28.7091 37.9998 28.0005 38C27.2919 38 26.6362 37.6244 26.2769 37.0137L16.2769 20.0137C15.9088 19.3879 15.9088 18.6121 16.2769 17.9863L26.2769 0.986328L26.3472 0.874023C26.7179 0.329607 27.3362 0 28.0005 0Z" fill="#898989"/>
<path d="M10.2769 0.986328C10.8369 0.0344746 12.0622 -0.283494 13.0142 0.276367C13.9659 0.836425 14.2838 2.06177 13.7241 3.01367L4.32082 19L13.7241 34.9863C14.2838 35.9382 13.9659 37.1636 13.0142 37.7236C12.0622 38.2835 10.8369 37.9655 10.2769 37.0137L0.873552 21.0283C0.137201 19.7765 0.137202 18.2235 0.873552 16.9717L10.2769 0.986328Z" fill="#898989"/>
<path d="M18.2769 0.986328C18.8369 0.0344746 20.0622 -0.283494 21.0142 0.276367C21.9659 0.836425 22.2838 2.06177 21.7241 3.01367L12.3208 19L21.7241 34.9863C22.2838 35.9382 21.9659 37.1636 21.0142 37.7236C20.0622 38.2835 18.8369 37.9655 18.2769 37.0137L8.87355 21.0283C8.1372 19.7765 8.1372 18.2235 8.87355 16.9717L18.2769 0.986328Z" fill="#898989"/>
</svg>
