<svg width="36" height="36" viewBox="0 0 36 36" fill="none" xmlns="http://www.w3.org/2000/svg">
<path d="M8 14C9.10457 14 10 14.8954 10 16C9.99998 17.1045 9.10456 18 8 18C6.89544 18 6.00002 17.1045 6 16C6 14.8954 6.89543 14 8 14Z" fill="#898989"/>
<path fill-rule="evenodd" clip-rule="evenodd" d="M23.2568 0.142564C24.2823 -0.267636 25.4471 0.231371 25.8574 1.25682C26.2676 2.28231 25.7686 3.44713 24.7432 3.85741L14.3867 7.99999H32C34.2091 7.99999 36 9.79085 36 12V32C36 34.2091 34.2091 36 32 36H4C1.79088 36 3.18659e-05 34.2091 0 32V12C0 9.94373 1.5516 8.24997 3.54785 8.02538L23.2568 0.142564ZM19 25C17.3431 25 16 26.3431 16 28C16 29.6568 17.3432 31 19 31C20.6568 31 22 29.6568 22 28C22 26.3431 20.6569 25 19 25ZM29 25C27.3431 25 26 26.3431 26 28C26 29.6568 27.3432 31 29 31C30.6568 31 32 29.6568 32 28C32 26.3431 30.6569 25 29 25ZM4 12V20H32V12H4Z" fill="#898989"/>
</svg>
