<svg width="32" height="44" viewBox="0 0 32 44" fill="none" xmlns="http://www.w3.org/2000/svg">
<path d="M30 14C31.1046 14 32 14.8954 32 16V20C32 28.1592 25.8926 34.8907 18 35.875V40H24C25.1046 40 26 40.8954 26 42C26 43.1046 25.1046 44 24 44H8C6.89543 44 6 43.1046 6 42C6 40.8954 6.89543 40 8 40H14V35.875C6.24099 34.9074 0.206919 28.3855 0.00488281 20.4131L0 20V16C0 14.8954 0.89543 14 2 14C3.10457 14 4 14.8954 4 16V20L4.00391 20.3096C4.16811 26.7939 9.47608 32 16 32C22.6274 32 28 26.6274 28 20V16C28 14.8954 28.8954 14 30 14Z" fill="#898989"/>
<path d="M16 0C20.4183 0 24 3.58172 24 8V20C24 24.4183 20.4183 28 16 28C11.5817 28 8 24.4183 8 20V8C8 3.58172 11.5817 0 16 0Z" fill="#898989"/>
</svg>
