<svg width="48" height="40" viewBox="0 0 48 40" fill="none" xmlns="http://www.w3.org/2000/svg">
<path d="M23.9998 9.55715C28.4181 9.55715 31.9998 13.1389 31.9998 17.5571C31.9995 21.2845 29.4501 24.4162 25.9998 25.3042V37.5571C25.9994 38.6614 25.1041 39.5571 23.9998 39.5571C22.8955 39.5571 22.0002 38.6613 21.9998 37.5571V25.3042C18.5497 24.4161 16.0001 21.2844 15.9998 17.5571C15.9998 13.1389 19.5816 9.55721 23.9998 9.55715Z" fill="#898989"/>
<path d="M7.02911 0.586446C7.81011 -0.194554 9.07618 -0.194457 9.85724 0.586446C10.6381 1.36751 10.6382 2.63359 9.85724 3.41457C2.04727 11.225 2.04723 23.8884 9.85724 31.6988C10.6381 32.4798 10.6382 33.7469 9.85724 34.5279C9.07625 35.3081 7.80996 35.3083 7.02911 34.5279C-2.34334 25.1554 -2.34307 9.95906 7.02911 0.586446Z" fill="#898989"/>
<path d="M38.1424 0.586446C38.9235 -0.194456 40.1895 -0.194554 40.9705 0.586446C50.3428 9.95906 50.343 25.1554 40.9705 34.5279C40.1896 35.3083 38.9234 35.3081 38.1424 34.5279C37.3614 33.7469 37.3616 32.4798 38.1424 31.6988C45.9524 23.8884 45.9524 11.225 38.1424 3.41457C37.3614 2.63361 37.3616 1.36752 38.1424 0.586446Z" fill="#898989"/>
<path d="M12.6863 6.24367C13.4674 5.46266 14.7334 5.46264 15.5145 6.24367C16.2952 7.02473 16.2954 8.29086 15.5145 9.0718C10.8286 13.7581 10.8284 21.3563 15.5145 26.0425C16.2952 26.8235 16.2953 28.0897 15.5145 28.8706C14.7335 29.6512 13.4673 29.6512 12.6863 28.8706C6.43813 22.6224 6.43837 12.4921 12.6863 6.24367Z" fill="#898989"/>
<path d="M32.4852 6.24367C33.2662 5.46264 34.5322 5.46266 35.3133 6.24367C41.5614 12.4921 41.5615 22.6223 35.3133 28.8706C34.5323 29.6512 33.2661 29.6512 32.4852 28.8706C31.7044 28.0897 31.7046 26.8235 32.4852 26.0425C37.1713 21.3563 37.1712 13.7581 32.4852 9.0718C31.7043 8.29089 31.7046 7.02474 32.4852 6.24367Z" fill="#898989"/>
</svg>
